<svg xmlns="http://www.w3.org/2000/svg" version="1.1" xmlns:xlink="http://www.w3.org/1999/xlink" xmlns:svgjs="http://svgjs.dev/svgjs" width="1000" height="1000" viewBox="0 0 1000 1000"><rect width="1000" height="1000" fill="#ffffff"></rect><g transform="matrix(0.7,0,0,0.7,149.57575757575756,452.48052684390905)"><svg viewBox="0 0 396 54" data-background-color="#ffffff" preserveAspectRatio="xMidYMid meet" height="136" width="1000" xmlns="http://www.w3.org/2000/svg" xmlns:xlink="http://www.w3.org/1999/xlink"><g id="tight-bounds" transform="matrix(1,0,0,1,0.2400000000000091,-0.04567699129296443)"><svg viewBox="0 0 395.52 54.09135398258591" height="54.09135398258591" width="395.52"><g><svg viewBox="0 0 430.64607906652344 58.8952" height="54.09135398258591" width="395.52"><g><svg viewBox="0 0 430.64607906652344 58.8952" height="58.8952" width="430.64607906652344"><g id="textblocktransform"><svg viewBox="0 0 430.64607906652344 58.8952" height="58.8952" width="430.64607906652344" id="textblock"><g><svg viewBox="0 0 430.64607906652344 58.8952" height="58.8952" width="430.64607906652344"><g><svg><g></g><g></g></svg></g><g><svg><g></g><g><svg></svg></g></svg></g><g id="text-0"><svg viewBox="0 0 430.64607906652344 58.8952" height="58.8952" width="430.64607906652344"><g><svg xmlns="http://www.w3.org/2000/svg" xmlns:xlink="http://www.w3.org/1999/xlink" version="1.1" x="0" y="3.552713678800501e-15" viewBox="12.982999801635742 1 75.68599700927734 97.81300354003906" enable-background="new 0 0 100 100" xml:space="preserve" height="58.895199999999996" width="45.57207906652337" class="icon-s-0" data-fill-palette-color="accent" id="s-0"><g fill="#3cadc9" data-fill-palette-color="accent"><polygon fill-rule="evenodd" clip-rule="evenodd" points="12.983,10.59 30.001,98.813 24.129,39.764 53.15,37.872 53.096,27.989    64.549,1 53.622,18.977  " fill="#3cadc9" data-fill-palette-color="accent"></polygon><polygon fill-rule="evenodd" clip-rule="evenodd" points="59.389,54.548 64.549,1.007 55.809,40.723 36.197,41.768 37.767,62.23    30.001,98.813 42.058,58.914  " fill="#3cadc9" data-fill-palette-color="accent"></polygon><polygon fill-rule="evenodd" clip-rule="evenodd" points="62.8,67.182 63.349,56.729 47.37,60.484 47.338,72.281 30.001,98.813    51.681,71.197  " fill="#3cadc9" data-fill-palette-color="accent"></polygon><polygon fill-rule="evenodd" clip-rule="evenodd" points="65.711,62.394 80.552,57.663 82.061,45.131 66.162,47.226  " fill="#3cadc9" data-fill-palette-color="accent"></polygon><polygon fill-rule="evenodd" clip-rule="evenodd" points="72.07,44.502 83.058,43.085 84.639,32.807 76.56,32.434 64.549,1    72.979,31.967  " fill="#3cadc9" data-fill-palette-color="accent"></polygon><polygon fill-rule="evenodd" clip-rule="evenodd" points="87.413,31.294 88.669,21.788 79.125,19.094 64.549,1 79.032,23.437    78.61,30.437  " fill="#3cadc9" data-fill-palette-color="accent"></polygon></g></svg></g><g transform="matrix(1,0,0,1,59.476879066523374,0)"><svg width="371.16920000000005" viewBox="3.9000000953674316 -35.70000076293945 229.3800048828125 36.400001525878906" height="58.8952" data-palette-color="#66e0ff"><path d="M9.7 0L3.9 0 3.9-35 9.7-35 9.7-20.93 26.35-20.93 26.35-35 32.15-35 32.15 0 26.35 0 26.35-15.48 9.7-15.48 9.7 0ZM55.17 0.7L55.17 0.7Q50.17 0.7 46.27-1.55 42.37-3.8 40.15-7.89 37.92-11.98 37.92-17.5L37.92-17.5Q37.92-23.03 40.15-27.11 42.37-31.2 46.27-33.45 50.17-35.7 55.17-35.7L55.17-35.7Q60.17-35.7 64.07-33.45 67.97-31.2 70.2-27.11 72.42-23.03 72.42-17.5L72.42-17.5Q72.42-11.98 70.2-7.89 67.97-3.8 64.07-1.55 60.17 0.7 55.17 0.7ZM55.17-4.93L55.17-4.93Q58.85-4.93 61.32-6.56 63.8-8.2 65.05-11.05 66.3-13.9 66.3-17.5L66.3-17.5Q66.3-21.1 65.05-23.95 63.8-26.8 61.32-28.44 58.85-30.08 55.17-30.08L55.17-30.08Q51.47-30.08 49-28.44 46.52-26.8 45.27-23.95 44.02-21.1 44.02-17.5L44.02-17.5Q44.02-13.9 45.27-11.05 46.52-8.2 49-6.56 51.47-4.93 55.17-4.93ZM98.95 0L78.15 0 78.15-35 83.95-35 83.95-5.2 98.95-5.2 98.95 0ZM108.97 0L103.17 0 103.17-35 108.97-35 108.97 0ZM129.81 0L116.77 0 116.77-35 129.81-35Q134.84-35 138.75-32.91 142.67-30.83 144.89-26.91 147.12-23 147.12-17.5L147.12-17.5Q147.12-12 144.89-8.09 142.67-4.17 138.75-2.09 134.84 0 129.81 0L129.81 0ZM122.57-29.8L122.57-5.2 129.81-5.2Q133.44-5.2 135.87-6.71 138.29-8.22 139.53-10.99 140.77-13.75 140.77-17.5L140.77-17.5Q140.77-21.25 139.53-24.01 138.29-26.78 135.87-28.29 133.44-29.8 129.81-29.8L129.81-29.8 122.57-29.8ZM171.31-13.85L171.31-8.72 156.54-8.72 156.54-13.85 171.31-13.85ZM173.49 0L163.16-29.33 164.71-29.33 154.36 0 148.61 0 161.09-35 166.76-35 179.26 0 173.49 0ZM206.29 0L179.89 0 198.56-31.73 199.59-29.8 182.14-29.8 182.14-35 206.54-35 187.81-3.28 186.81-5.2 206.29-5.2 206.29 0ZM233.28 0L210.78 0 210.78-35 232.81-35 232.81-29.5 216.68-29.5 216.68-21.03 229.31-21.03 229.31-15.53 216.68-15.53 216.68-5.5 233.28-5.5 233.28 0Z" opacity="1" transform="matrix(1,0,0,1,0,0)" fill="#66e0ff" class="undefined-text-0" data-fill-palette-color="primary"></path></svg></g></svg></g></svg></g></svg></g></svg></g></svg></g><defs></defs></svg><rect width="395.52" height="54.09135398258591" fill="none" stroke="none" visibility="hidden"></rect></g></svg></g></svg>